<?xml version="1.0" encoding="UTF-8"?>
<svg xmlns="http://www.w3.org/2000/svg" xmlns:xlink="http://www.w3.org/1999/xlink" viewBox="0 0 100 100" width="100px" height="100px">
<g id="surface131375937">
<path style=" stroke:none;fill-rule:nonzero;fill:rgb(0%,0%,0%);fill-opacity:1;" d="M 12 6 C 8.601562 6 6 8.601562 6 12 L 6 52 C 6 55.398438 8.601562 58 12 58 L 12.8125 58 L 16 54 L 12 54 C 10.796875 54 10 53.203125 10 52 L 10 12 C 10 10.796875 10.796875 10 12 10 L 52 10 C 53.203125 10 54 10.796875 54 12 L 54 42 L 48 42 C 44.601562 42 42 44.601562 42 48 L 42 54 L 32 54 L 35.1875 58 L 42 58 L 42 64.8125 L 46 68.1875 L 46 48 C 46 46.796875 46.796875 46 48 46 L 88 46 C 89.203125 46 90 46.796875 90 48 L 90 88 C 90 89.203125 89.203125 90 88 90 L 48 90 C 46.796875 90 46 89.203125 46 88 L 46 84 L 42 87.375 L 42 88 C 42 91.398438 44.601562 94 48 94 L 88 94 C 91.398438 94 94 91.398438 94 88 L 94 48 C 94 44.601562 91.398438 42 88 42 L 58 42 L 58 12 C 58 8.601562 55.398438 6 52 6 Z M 32 16 L 32 20 L 16 20 L 16 24 L 39.8125 24 C 39.195312 28.453125 36.585938 32.109375 33.3125 35.0625 C 28.296875 30.664062 25.75 26.0625 25.75 26.0625 L 22.25 27.9375 C 22.25 27.9375 24.867188 32.757812 30.125 37.5625 C 29.992188 37.65625 29.882812 37.78125 29.75 37.875 C 24.46875 41.515625 19.1875 43.3125 19.1875 43.3125 L 20.4375 47.125 C 20.4375 47.125 26.25 45.195312 32.0625 41.1875 C 32.476562 40.898438 32.898438 40.5625 33.3125 40.25 C 35.59375 41.9375 38.25 43.484375 41.25 44.6875 L 42.75 40.9375 C 40.453125 40.023438 38.398438 38.835938 36.5625 37.5625 C 40.21875 34.101562 43.273438 29.585938 43.875 24 L 50 24 L 50 20 L 36 20 L 36 16 Z M 24 50 L 14 62 L 20 62 L 20 70 L 28 70 L 28 62 L 34 62 Z M 66 52.8125 L 55.625 80.375 L 60.625 80.375 L 62.8125 74 L 73.375 74 L 75.625 80.375 L 80.625 80.375 L 70.1875 52.8125 Z M 68 58.8125 L 72 70.1875 L 64 70.1875 Z M 38 66 L 38 72 L 20 72 L 28 80 L 38 80 L 38 86 L 50 76 Z M 38 66 "/>
</g>
</svg>
